<?xml version="1.0" encoding="utf-8"?>
<!-- Generator: Adobe Illustrator 27.0.1, SVG Export Plug-In . SVG Version: 6.00 Build 0)  -->
<svg version="1.2" baseProfile="tiny" id="Ebene_1" xmlns="http://www.w3.org/2000/svg" xmlns:xlink="http://www.w3.org/1999/xlink"
	 x="0px" y="0px" viewBox="0 0 226.8 226.8" overflow="visible" xml:space="preserve">
<path fill="#A8C713" d="M157.9,103.6c-4.7-7.2-12.3-5.5-17.4-4c3-2.6,6.6-4.4,10.5-5.2c0.1,0,0.1-0.1,0.1-0.2c0-0.1-0.1-0.1-0.1-0.1
	c-5.5-2.1-10.2,1.8-12.4,4c0.4-1.4,1-3.2,1.7-5.2c0.5,0.4,1,0.8,1.4,1.2c0.1,0.1,0.3,0.1,0.4,0c0,0,0.1-0.1,0.1-0.2
	c-0.1-1.2-0.4-2.3-0.9-3.3c0.4-1,0.8-2,1.3-3c0-0.1,0-0.1-0.1-0.2c0,0-0.1,0-0.1,0c-0.7,0.5-1.4,1.1-2,1.7c-3.4-5-11-8.1-16.7-9.4
	c6.9-0.4,10.8-1,22.1,3.4c0.2,0.1,0.3,0,0.4-0.2c0-0.1,0-0.2,0-0.2c-2.7-5.1-10.6-11.4-25-7c2.2-3.3,8.5-8.3,14.7-12.1
	c0.1-0.1,0.1-0.2,0.1-0.3c0-0.1-0.1-0.1-0.2-0.1c-8.9,0.7-14.4,4.4-17.6,9.1C119,67,121.4,62,125,58c0.1-0.1,0.1-0.2,0-0.2
	c0,0-0.1-0.1-0.2,0c-7.7,2.1-9.4,9.3-9.6,13.6c-0.8-4.1-5.2-11.8-12.5-13c-0.1,0-0.2,0.1-0.2,0.2c0,0.1,0,0.1,0.1,0.2
	c5.1,5,8.5,10.7,9.4,13.9c-5.3-5.6-14.6-13.8-25.6-8.1c-0.1,0.1-0.2,0.2-0.1,0.4c0,0.1,0.1,0.1,0.1,0.1c8.1,2.3,15.7,5.9,22.7,10.6
	c-9.1-1.9-23.5-3.9-28,11.2c0,0.1,0,0.1,0.1,0.1c0,0,0.1,0,0.1,0c8.2-4.5,17.3-7,26.6-7.3c-16.6,5.8-19.8,17.5-20.6,19.6
	c-0.1,0.2,0.1,0.3,0.2,0.2c2.1-1.7,13.4-11.9,21.2-15.5c-4.2,4.5-10.6,13.8-6.9,25.5c0,0.1,0.1,0.1,0.2,0.1c0.1,0,0.1-0.1,0.1-0.1
	c3-11.2,7.1-18,9.8-21.7c-3.5,15.9-4.9,44.1,9.2,65.2c2.7-0.6,5.3-1,7.7-1.3c-0.4-0.7-0.7-1.5-1-2.2h-1.3c-0.2,0-0.3-0.2-0.2-0.3
	l0.7-0.5c0.3-0.2,0.4-0.5,0.3-0.8c-0.2-0.6-0.4-1.6-0.6-2.3l-1.3-0.1c-0.2,0-0.3-0.2-0.1-0.3l0.8-0.4c0.3-0.1,0.4-0.4,0.3-0.7
	c-0.1-0.8-0.2-1.4-0.3-2.3h-1.3c-0.2,0-0.3-0.2-0.1-0.3l0.8-0.4c0.3-0.1,0.4-0.4,0.4-0.7c-0.1-0.8-0.1-1.3-0.1-2.1l-1.2-0.1
	c-0.2,0-0.2-0.2-0.1-0.3l0.8-0.3c0.3-0.1,0.5-0.4,0.5-0.7c0-0.5,0-0.8,0-1.4c0-0.3,0-0.6,0-0.9l-1.3-0.2c-0.2,0-0.2-0.2-0.1-0.3
	l0.9-0.3c0.3-0.1,0.5-0.3,0.6-0.6c0-0.7,0.1-1.2,0.2-2.1l-1.2-0.2c-0.2,0-0.2-0.3,0-0.3l0.7-0.2c0.3-0.1,0.6-0.3,0.7-0.7
	c0.1-0.8,0.2-1.5,0.4-2.4l-1.1-0.2c-0.2,0-0.2-0.3,0-0.3l0.8-0.2c0.3-0.1,0.6-0.3,0.6-0.6c0.1-0.6,0.3-1.2,0.5-1.8l-1.1-0.3
	c-0.1,0-0.1-0.1-0.1-0.2c0-0.1,0.1-0.1,0.1-0.1l0.7-0.1c0.4,0,0.6-0.3,0.8-0.6c0.2-0.6,0.3-1.1,0.5-1.7l-1-0.3
	c-0.1,0-0.1-0.1-0.1-0.2c0,0,0.1-0.1,0.1-0.1l0.6-0.1c0.3,0,0.6-0.2,0.8-0.5c0.2-0.6,0.4-1,0.7-1.7l-0.9-0.4
	c-0.2-0.1-0.1-0.3,0.1-0.3l0.6,0c0.3,0,0.7-0.2,0.8-0.5c0.2-0.4,0.3-0.7,0.6-1.2l-0.9-0.5c-0.2-0.1-0.1-0.3,0.1-0.3h0.5
	c0.4,0,0.7-0.2,0.9-0.5c0.2-0.4,0.4-0.7,0.6-1.2l-0.8-0.4c-0.2-0.1-0.1-0.3,0.1-0.3h0.5c0.4,0,0.7-0.2,0.9-0.5
	c0.2-0.4,0.4-0.8,0.8-1.2l-0.8-0.4c-0.2-0.1-0.1-0.3,0.1-0.3h0.5c0.4,0,0.7-0.1,0.9-0.4l0.7-1l-0.7-0.4c-0.2-0.1-0.1-0.3,0.1-0.3
	h0.4c0.4,0,0.7-0.1,0.9-0.4c0-0.1,0.2-0.3,0.4-0.7c0,4.2-0.4,11.4-2.9,16.2c0,0.1,0,0.2,0.1,0.2c0,0,0.1,0,0.2,0
	c5.9-3.6,5.9-11.4,5.8-15.9c2.8,2.9,5.6,12.1,6.3,14.3c0,0.1,0.1,0.1,0.2,0.1c0.1,0,0.1-0.1,0.1-0.1c1.1-1.9,1.5-4.1,1.2-6.2
	c-0.9-5.6-3-8-5.1-9.8c5,1.6,9.5,4.6,12.7,8.8c0.1,0.1,0.2,0.1,0.3,0c0.1,0,0.1-0.1,0.1-0.2c-1.6-8.1-8.1-10.5-12.5-11.7
	c5.2-0.3,10.5,0.2,15.6,1.5c0.1,0.1,0.3,0,0.3-0.1C157.9,103.8,157.9,103.7,157.9,103.6z M122,136c0,3.5,0.3,6.9,1,10.3
	c-0.5-1-1.1-2-1.6-3.1l-2.2,0.8c-0.1,0.1-0.2,0-0.2,0c0-0.1,0-0.2,0-0.2l1.3-1.4c0.2-0.2,0.3-0.6,0.2-0.9c-0.5-1.1-0.8-1.7-1.2-2.9
	l-2,0.6c-0.1,0-0.2,0-0.2-0.1c0-0.1,0-0.1,0-0.2l1.2-1.2c0.2-0.2,0.3-0.6,0.2-0.9c-0.4-1.1-0.7-1.9-1.1-3.1l-2.2,0.4
	c-0.1,0-0.2-0.1-0.2-0.1c0-0.1,0-0.1,0-0.1l1.4-1.2c0.3-0.2,0.4-0.6,0.3-0.9c-0.2-0.7-0.3-1.1-0.6-2c-0.1-0.4-0.2-0.8-0.3-1.2
	l-1.9,0.4c-0.1,0-0.2-0.1-0.2-0.2c0,0,0-0.1,0-0.1l1.2-1.1c0.3-0.2,0.4-0.6,0.4-0.9c-0.3-1-0.4-1.8-0.7-2.9l-1.9,0.3
	c-0.1,0-0.2-0.1-0.2-0.1c0-0.1,0-0.1,0-0.1l1.4-1.1c0.2-0.2,0.3-0.5,0.3-0.8c-0.2-1.2-0.4-2.1-0.6-3.4l-1.9,0.2
	c-0.1,0-0.2-0.1-0.2-0.1c0,0,0-0.1,0-0.1l1.5-1.2c0.2-0.2,0.3-0.4,0.2-0.7c-0.1-1-0.2-1.6-0.3-2.7h-1.7c-0.1,0-0.2-0.1-0.2-0.2
	c0,0,0-0.1,0.1-0.1l1.3-0.9c0.2-0.2,0.4-0.4,0.4-0.7c-0.1-0.9-0.1-1.6-0.1-2.6l-1.7-0.1c-0.1,0-0.2-0.1-0.2-0.2c0-0.1,0-0.1,0.1-0.1
	l1.3-0.7c0.3-0.2,0.4-0.4,0.4-0.7c0-0.9,0-1.6,0-2.6l-1.7-0.2c-0.1,0-0.2-0.1-0.2-0.2c0-0.1,0-0.1,0.1-0.1l1.4-0.7
	c0.2-0.1,0.4-0.4,0.4-0.7c0-0.7,0.1-1.1,0.1-1.9l-1.7-0.3c-0.2,0-0.2-0.2,0-0.3l1.2-0.4c0.3-0.1,0.5-0.4,0.6-0.7
	c0.1-0.7,0.1-1.3,0.2-2.1L112,97c-0.1,0-0.1-0.1-0.1-0.2c0,0,0.1-0.1,0.1-0.1l1.3-0.4c0.3-0.1,0.5-0.4,0.6-0.7
	c0.1-0.7,0.2-1.2,0.3-2.1l-1.5-0.2c-0.1,0-0.1-0.1-0.1-0.2c0,0,0.1-0.1,0.1-0.1l1.2-0.4c0.3-0.1,0.5-0.3,0.6-0.6
	c0.1-0.6,0.2-1,0.3-1.8l-1.5-0.3c-0.1,0-0.1-0.1-0.1-0.2c0,0,0.1-0.1,0.1-0.1l1.3-0.4c0.3-0.1,0.5-0.3,0.6-0.6c0-0.2,0.2-1,0.4-1.8
	c0.9,2.3,1.6,4.6,2.1,6.9c-1.1,0.4-2.1,0.9-2.9,1.7c0,0.1,0,0.1,0,0.2c0,0,0.1,0,0.1,0c1.2,0.1,2.3,0.2,3.3,0.3
	c0.4,1.9,0.9,3.9,1.5,6.2c-1.9,1.1-3.4,2.8-4.4,4.8c0,0.1,0,0.2,0.1,0.2c0,0,0.1,0,0.1,0c1.6-0.8,3.2-1.6,4.9-2.2
	c0.3,1.3,0.7,2.8,1.1,4.3c0,0.1,0.1,0.1,0.2,0.1c0.1,0,0.1-0.1,0.1-0.1c0.7-1.7,1.2-3.5,1.7-5.3c2.5-0.6,5-0.8,7.6-0.5
	c-4.9,1.7-8.9,8.8-10.2,13.7c0,0.1,0,0.2,0.1,0.2c0,0,0.1,0,0.1,0c3.4-3.9,7.2-7.4,11.3-10.6C128.6,112.1,122,123.3,122,136z
	 M124.2,100.2c0.2-1.1,0.3-2.2,0.3-3.3c2.4,0.6,4.6,1.7,6.5,3.3C128.8,99.8,126.5,99.8,124.2,100.2L124.2,100.2z M136.3,97.4
	c-0.8-4-4.4-7.1-10.6-9c-0.1,0-0.1,0-0.1,0c0,0,0,0.1,0,0.1c3.5,3.1,7.2,6.7,8.2,9.8c-2.2-3-5.6-5-9.3-5.5c-0.3-3-1.3-5.8-2.8-8.3
	c3.5,0.4,10.8,3.1,16.8,7.2C137.4,93.5,136.7,95.4,136.3,97.4L136.3,97.4z"/>
<path fill="#85AC1C" d="M152.7,100.8c-1.3-0.6-5.1-1.4-15.6,0.4c1.1-1.2,4.6-4.7,8.3-6.2c0.1,0,0.2-0.1,0-0.1
	c-0.9,0.1-4.7,1.7-8.6,5.9c0.5-3.2,1.5-6.2,2.8-9.1c0.1-0.1,0-0.2-0.1-0.1c-0.6,0.6-1.8,2.4-3.2,9.3c-0.9-5.8-3.9-8.2-4.8-8.9
	c-0.2-0.2-0.3,0-0.2,0.1c2.5,2.4,4.1,5.6,4.5,9c-5.8-5.2-9.6-6.2-11.2-6.4c-0.3,0-0.3,0.1-0.1,0.2c4.1,1.5,7.8,3.8,11,6.8
	c-7.9-1.1-10.9-0.5-12,0c-0.6,0.2-0.5,0.4,0,0.2c3.8-0.8,10-0.1,11.9,0.2c-3.5,1.5-6.6,3.9-8.9,6.9c-0.1,0.2,0,0.2,0.1,0.1
	c2.7-2.9,5.9-5.3,9.6-6.8c0.3,0.8,1.5,4.3,0.7,11.3c0,0.2,0.1,0.2,0.2,0c0.9-3.7,0.8-7.5-0.1-11.2c3,3.2,5.4,6.9,7.2,10.9
	c0.1,0.1,0.2,0.1,0.1,0c-0.3-1.4-1.5-5.3-6.9-11c2,0.6,9.1,3,12.3,5.7c0.1,0.1,0.3,0.2,0.1-0.1c-0.7-0.9-3.1-3.1-12.6-6
	c1.7-0.4,9.6-1.9,15.4-0.7C152.8,101,152.8,100.9,152.7,100.8z"/>
<path fill="#85AC1C" d="M135.2,77.2c-3.6-2.1-16.3,0.5-19.1,1.1c2.8-4,6.1-7.5,9.8-10.6c0,0,0-0.1,0-0.1c0,0,0,0-0.1,0
	c-3.4,1.5-8.4,7.7-10.1,9.8c0.3-4.4,1.2-8.7,2.8-12.8c0,0,0-0.1,0-0.1c0,0-0.1,0-0.1,0c-2.4,2.9-3.3,11.8-3.4,13.1
	c-0.1-1.7-0.8-7.9-4.4-12.1c0,0-0.1,0-0.1,0c0,0,0,0.1,0,0.1c3.5,6,3.9,10.6,3.9,12.1c-1-1.3-7.5-9.3-14.6-11.6
	c-0.1,0-0.2,0.1-0.1,0.1c5.5,3,10.2,7.1,14.1,12c-2.5-0.5-13-2.4-20.2,0c-0.1,0-0.1,0-0.1,0.1s0,0.1,0.1,0.1
	c6.7-1.1,13.6-0.8,20.2,0.7c-1.5,0.5-13.2,4.4-18.8,10.5c0,0,0,0.1,0,0.1c0,0,0.1,0,0.1,0c7.6-6,18.1-9.5,19.3-9.9
	c-1.1,1-9.4,8.8-10.6,16.3c0,0,0,0.1,0.1,0.1c0,0,0.1,0,0.1-0.1c2.5-6.1,6.4-11.6,11.3-16c3.5,5.5,5.8,11.7,6.7,18.2
	c0,0.2,0.2,0.2,0.2,0c0.7-7.4-5-16.8-6-18.4c1.4,0.3,10.8,2,17.1,5.9c0.1,0.1,0.2,0,0.1-0.1c-2.1-3.2-14.7-6-17-6.5
	c2.2-0.5,12.5-2.8,18.9-1.8c0,0,0.1,0,0.1,0S135.3,77.2,135.2,77.2z M115.9,79.5L115.9,79.5L115.9,79.5L115.9,79.5z"/>
<path fill="#00848F" d="M157.3,157.3c0.1,0.1,0.3,0,0.3-0.1s0-0.3-0.1-0.3c-3.7-2.1-11.6-5.7-23.3-5.7c-16.7,0-46.9,13-70.4,13
	c-7.8,0-15.6-1.7-22.6-5.1c-0.2-0.1-0.4,0-0.5,0.2c-0.1,0.1,0,0.3,0.1,0.4c3.2,3.1,14.4,9.3,26.3,9.3c25,0,53.1-15.4,68.7-15.4
	C143,153.5,150.4,154.8,157.3,157.3z"/>
<rect x="158" y="124.5" fill="#00848F" width="3.7" height="23.4"/>
<path fill="#00848F" d="M137.8,148h3.7v-21.3h-3.7V148z"/>
<path fill="#00848F" d="M99.3,124.5V148h3.7v-23.4H99.3z"/>
<polygon fill="#00848F" points="16.8,124.5 0,124.5 0,127.8 6.5,127.8 6.5,148 10.2,148 10.2,127.8 16.8,127.8 "/>
<path fill="#00848F" d="M63.5,124.5c-1.2,0-2.2,0.9-2.2,2.1c0,0,0,0.1,0,0.1c0,1.2,0.9,2.1,2.1,2.2c0,0,0.1,0,0.1,0l0,0
	c1.2,0,2.2-1,2.2-2.2S64.6,124.5,63.5,124.5L63.5,124.5z"/>
<rect x="61.6" y="131.7" fill="#00848F" width="3.7" height="16.3"/>
<path fill="#00848F" d="M222.5,138.2c-2-0.8-2.6-1.3-2.6-2.2s0.8-1.6,2.1-1.6c1,0,2,0.3,2.9,0.8l0.5,0.3l1-2.9l-0.3-0.2
	c-1.2-0.7-2.6-1-4-1c-3.3,0-5.8,2.1-5.8,5c0,1.4,0.8,3.5,4.4,4.8c2.1,0.8,2.5,1.4,2.5,2.3c0,1.2-0.9,1.8-2.5,1.8
	c-1.2,0-2.4-0.4-3.5-1l-0.5-0.3l-1,3l0.3,0.2c1.4,0.8,3,1.2,4.6,1.1c3.8,0,6.2-2,6.2-5.1C226.8,140.8,225.4,139.3,222.5,138.2z"/>
<path fill="#00848F" d="M213.2,147.5c-0.1-1.2-0.1-3-0.1-3.9v-19h-3.7v8.3c-1.2-1-2.7-1.6-4.2-1.5c-1.8,0-3.6,0.7-4.9,2.1
	c-1.7,1.8-2.5,4.2-2.4,6.6c0,4.8,3,8.3,7.1,8.3c1.9,0.1,3.6-0.7,4.9-2.1l0.1,1.8h3.5L213.2,147.5z M209.3,141.1c0,0.4,0,0.7-0.1,1.1
	c-0.4,1.7-1.9,3-3.6,3c-3,0-4.1-2.8-4.1-5.2c0-3.2,1.7-5.4,4.1-5.4c1.7,0,3.2,1.2,3.6,2.8c0.1,0.4,0.1,0.7,0.1,1.1L209.3,141.1z"/>
<path fill="#00848F" d="M189.2,131.3c-1.8,0-3.5,0.7-4.8,2.1l-0.1-1.7h-3.4v0.5c0.1,1.2,0.1,2.4,0.1,4.1V148h3.7v-9.7
	c0-0.4,0.1-0.8,0.2-1.1c0.4-1.5,1.8-2.5,3.3-2.5c2.6,0,3.1,2.2,3.1,4.1v9.3h3.7v-9.6C195.1,135.1,193.5,131.3,189.2,131.3z"/>
<path fill="#00848F" d="M177.7,147.4c-0.2-1.2-0.2-2.4-0.2-3.6v-5.7c0-4.4-2.2-6.7-6.3-6.7c-1.9,0-3.7,0.5-5.3,1.4l-0.3,0.2l0.9,2.8
	l0.5-0.3c1.1-0.7,2.4-1.1,3.8-1.1h0.1c1.9,0,2.9,1,3,2.9c-8,0.1-9.2,3.9-9.2,6.2c0,2.7,2.1,4.9,4.8,4.9c0.1,0,0.2,0,0.3,0
	c1.7,0,3.2-0.6,4.4-1.7l0.2,1.4h3.5L177.7,147.4z M173.8,142.3c0,0.3,0,0.5-0.1,0.7c-0.5,1.4-1.8,2.3-3.3,2.2
	c-1.1,0.1-2.1-0.8-2.1-1.9c0-0.1,0-0.2,0-0.3c0-2,1.9-3,5.6-3L173.8,142.3z"/>
<path fill="#00848F" d="M151,138.2c-2-0.8-2.6-1.3-2.6-2.2s0.8-1.6,2.1-1.6c1,0,2,0.3,2.9,0.8l0.5,0.3l1-2.9l-0.3-0.2
	c-1.2-0.7-2.6-1-4-1c-3.3,0-5.8,2.1-5.8,5c0,1.4,0.8,3.5,4.4,4.8c2.1,0.8,2.5,1.4,2.5,2.3c0,1.2-0.9,1.8-2.5,1.8
	c-1.2,0-2.4-0.4-3.5-1l-0.5-0.3l-1,3l0.3,0.2c1.4,0.8,3,1.2,4.6,1.1c3.8,0,6.2-2,6.2-5.1C155.3,140.8,154,139.3,151,138.2z"/>
<path fill="#00848F" d="M95.8,147.4c-0.2-1.2-0.2-2.4-0.2-3.7v-5.7c0-4.4-2.2-6.7-6.3-6.7c-1.9,0-3.7,0.5-5.3,1.4l-0.3,0.2l1,2.8
	l0.5-0.3c1.1-0.7,2.4-1.1,3.8-1.1H89c1.9,0,2.9,1,3,2.9c-8,0.1-9.2,3.9-9.2,6.2c0,2.7,2.1,4.9,4.8,4.9c0.1,0,0.2,0,0.3,0
	c1.7,0,3.2-0.6,4.4-1.7l0.2,1.4H96L95.8,147.4z M91.9,142.3c0,0.3,0,0.5-0.1,0.7c-0.5,1.4-1.8,2.3-3.3,2.2c-1.1,0.1-2.1-0.8-2.1-1.9
	c0-0.1,0-0.2,0-0.3c0-2,1.9-3,5.6-3V142.3z"/>
<path fill="#00848F" d="M76.4,134.5c1,0,2.1,0.2,3,0.7l0.5,0.3l0.9-3l-0.3-0.2c-1.3-0.6-2.7-0.9-4.1-0.9c-4.6-0.2-8.5,3.3-8.7,7.9
	c0,0.3,0,0.5,0,0.8c0,5,3.3,8.3,8.1,8.3c1.6,0,3.2-0.3,4.6-0.9l0.3-0.2l-0.7-3l-0.5,0.2c-1,0.5-2.1,0.7-3.2,0.7
	c-2.9,0-4.9-2.1-4.9-5.3C71.5,135.9,74.2,134.5,76.4,134.5z"/>
<path fill="#00848F" d="M52.3,131.3c-1.9-0.1-3.8,0.7-5.1,2.2l-0.1-1.8h-3.4v0.5c0.1,1.4,0.1,2.8,0.1,5v17h3.7v-7.6
	c1.2,1.1,2.7,1.7,4.3,1.6c5.1,0,7.4-4.5,7.4-8.7C59.3,134.8,56.3,131.3,52.3,131.3z M51.3,145.2c-1.8,0-3.3-1.2-3.7-2.9
	c-0.1-0.3-0.1-0.7-0.1-1v-2.7c0-0.3,0.1-0.6,0.2-0.8v-0.2c0.4-1.8,2-3.1,3.8-3.1c2.8,0,4.1,2.6,4.1,5.2
	C55.5,143.1,53.9,145.2,51.3,145.2L51.3,145.2z"/>
<path fill="#00848F" d="M33.5,131.3c-4.8,0-8.1,3.5-8.1,8.6c0,5.1,3.2,8.4,7.8,8.4l0,0c3.9,0,8.1-2.7,8.1-8.6
	C41.4,134.8,38.1,131.3,33.5,131.3z M33.4,145.3c-2.4,0-4.1-2.3-4.1-5.4c0-2.7,1.3-5.5,4.2-5.5c3.3,0,4.1,3.5,4.1,5.4
	C37.6,143,35.8,145.3,33.4,145.3z"/>
<path fill="#00848F" d="M23.3,131.3c-1.6,0-3.1,0.8-4,2.2l-0.1-1.8h-3.4v0.5C16,133.5,16,135,16,137v11h3.7v-8.7
	c0-0.4,0-0.8,0.1-1.2c0.1-1.7,1.5-3.1,3.3-3.2c0.3,0,0.6,0,0.9,0.1l0.5,0.1v-3.6l-0.5-0.1C23.8,131.4,23.6,131.3,23.3,131.3z"/>
</svg>
