<svg xmlns="http://www.w3.org/2000/svg" id="fd6d2a02-25d9-4f19-9196-57772cc8d97f" data-name="Ebene 1" viewBox="0 0 440 182.655"><title>Zeichenfläche 1</title><path d="M0,34.051H27.535V49.086H15.589v9.225H26.751V73.346H15.589V97.791H0Zm34.268,63.97H49.857V34.281H34.268Zm306.663-50.78c4.289-.369,8.21,4.8,8.716,11.438.554,6.688-2.49,12.361-6.779,12.684-4.29.369-8.21-4.8-8.717-11.438C333.6,53.283,336.642,47.61,340.931,47.241Zm-4.289,12.5c.369,4.243,2.859,7.564,5.58,7.334s4.658-3.875,4.336-8.164c-.37-4.243-2.86-7.564-5.581-7.333S336.319,55.451,336.642,59.74Zm-36.114,38.1H310.9V68.6H311l9.732,29.241h16.742L323.543,64.86,336,34.1H319.577v-.046L311,61.17H310.9V34.051H295.316V93.962l5.212.047Zm-126-3.967H158.382V34.051h14.2c13.606,0,25.044,4.8,25.044,21.538,0,16.6-9.548,20.755-23.107,20.34Zm.046-31.316c4.289.23,6.965-2.352,6.965-7.1,0-4.059-1.984-7.7-5.812-7.7l-1.153.092ZM73.7,34.051H58.113v63.74h27.3V82.755H73.7Zm245.966,89.89c-2.121-1.983-3.182-4.842-3.182-8.486a12.3,12.3,0,0,1,3-8.67,10.772,10.772,0,0,1,8.256-3.183c3.228,0,5.627.922,7.241,2.722s2.444,4.427,2.444,7.84v2.49H322.943a5.424,5.424,0,0,0,1.753,3.967,7.17,7.17,0,0,0,4.8,1.384,10.191,10.191,0,0,0,3.874-.785,13.585,13.585,0,0,0,3-1.706h.692v5.627A20.151,20.151,0,0,1,333,126.524a19.9,19.9,0,0,1-4.2.415C324.834,126.939,321.79,125.925,319.668,123.941Zm3.322-11.391H331.2V112.5a5.47,5.47,0,0,0-.968-3.32,3.532,3.532,0,0,0-2.906-1.107,4.4,4.4,0,0,0-3,1.061A4.767,4.767,0,0,0,322.99,112.55Zm74.716-87.862c-.369-8.625,5.166-15.912,12.361-16.235s13.329,6.411,13.7,15.082S418.6,39.447,411.4,39.77,398.075,33.359,397.706,24.688Zm14.067,7.241c.185,2.859,1.753,5.027,3.552,4.889,1.752-.139,3.09-2.583,2.905-5.442s-1.752-5.028-3.551-4.889C412.926,26.625,411.589,29.069,411.773,31.929ZM440,176.428a6.227,6.227,0,1,1-6.226-6.226A6.23,6.23,0,0,1,440,176.428Zm-1.2-.046a5.028,5.028,0,1,0-5.027,5.027A5.038,5.038,0,0,0,438.8,176.382ZM407.346,72.055l-24.168,6.134C396.092,87.6,405.685,76.39,407.346,72.055Zm16.189-29.426-43.17-5.673,2.951,38.281,41.556-10.562Zm-56.361,7.2c7.1.508,6.918,11.485,2.583,12.914l-8.671,3.183.046,2.536,19.74,7.057L377.92,37.233l-17.249,8.579.046,2.859ZM349,68.78l18.956-6.964c3.459-1.153,3.6-9.824-2.029-10.239L348.08,48.44C352.369,55.22,352.645,62,349,68.78Zm13.744-50.272C362.285,8.638,368.7.382,377.09.013c8.348-.369,15.5,7.287,15.958,17.157.462,9.824-6,18.126-14.344,18.495S363.207,28.378,362.746,18.508Zm16.328,8.486c.184,3.321,2.028,5.857,4.1,5.673s3.6-3.044,3.413-6.365-2.029-5.857-4.105-5.673S378.889,23.627,379.074,26.994ZM125.451,34.051,121.715,56.1c-.692,3.966-1.061,7.841-1.522,11.853h-.139l-4.427-33.9H96.21l-6.734,63.74h16.742l1.292-25.967c.23-4.75.138-9.362.23-14.113h.138l5.443,40.08H126l4.427-26.1c.785-4.658,1.292-9.317,1.984-13.929h.139l1.475,40.08h16.189v-.046l-5.581-63.74ZM259.065,126.34h6.365V95.807h-6.365Zm19.279-55.115,11.53,26.566v.046H272.947l-9.316-26.566-.139.184c.093,3.091.231,6.227.231,9.363V94.009h-6.088l-.046,3.782h-9.87V34.051H262.8c13.561,0,24.261,4.381,24.261,21.216C287.061,62.277,284.524,68.5,278.344,71.225Zm-7.334-16.1c0-5.35-3.043-7.61-7.333-7.379V62.831l.968.092C268.8,62.923,271.01,59.1,271.01,55.128Zm12.638,58.021c-.784-.184-1.522-.369-2.26-.508s-1.43-.276-2.076-.414a6.061,6.061,0,0,1-2.26-.83,1.5,1.5,0,0,1-.461-1.2c0-.6.369-1.015,1.061-1.337a6.985,6.985,0,0,1,2.582-.461,10.182,10.182,0,0,1,3.644.692,12.042,12.042,0,0,1,3.229,1.752h.553v-5.534a15.8,15.8,0,0,0-3.182-1.061,18.116,18.116,0,0,0-4.244-.508c-3.135,0-5.58.692-7.379,2.122a6.539,6.539,0,0,0-2.721,5.3,6.42,6.42,0,0,0,1.292,4.105,7.557,7.557,0,0,0,4.012,2.444c.692.185,1.43.369,2.214.508s1.429.23,1.891.369a7.06,7.06,0,0,1,2.029.691,1.313,1.313,0,0,1,.507,1.153,1.486,1.486,0,0,1-.876,1.384,6.108,6.108,0,0,1-2.767.461,9.874,9.874,0,0,1-2.675-.323,11.675,11.675,0,0,1-2.26-.784,17.633,17.633,0,0,1-1.753-.968q-.622-.485-1.106-.83h-.6v5.811a19.691,19.691,0,0,0,3.459,1.2,19.294,19.294,0,0,0,4.8.553,12.233,12.233,0,0,0,7.518-2.075,6.553,6.553,0,0,0,2.767-5.488,6.14,6.14,0,0,0-1.245-3.921A6.645,6.645,0,0,0,283.648,113.149ZM252.1,106.324c1.614,1.8,2.444,4.427,2.444,7.84v2.49H240.063a5.423,5.423,0,0,0,1.752,3.967,7.17,7.17,0,0,0,4.8,1.384,10.183,10.183,0,0,0,3.874-.785,13.561,13.561,0,0,0,3-1.706h.692v5.627a20.13,20.13,0,0,1-4.059,1.383,19.9,19.9,0,0,1-4.2.415c-3.966,0-7.01-1.014-9.132-3s-3.182-4.842-3.182-8.486a12.3,12.3,0,0,1,3-8.67,10.768,10.768,0,0,1,8.255-3.183C248.088,103.6,250.486,104.524,252.1,106.324Zm-3.829,6.179a5.463,5.463,0,0,0-.968-3.32,3.531,3.531,0,0,0-2.906-1.107,4.406,4.406,0,0,0-3,1.061,4.767,4.767,0,0,0-1.337,3.413h8.209Zm63.1-5.765q2.075,2.975,2.075,8.3a13.473,13.473,0,0,1-2.583,8.486A7.93,7.93,0,0,1,304.4,126.8a10.832,10.832,0,0,1-2.9-.369,10.411,10.411,0,0,1-2.4-1.153l-.276,1.107h-6.088V95.853H299.1v10.793a15.579,15.579,0,0,1,3-2.122,7.153,7.153,0,0,1,3.5-.784A6.572,6.572,0,0,1,311.367,106.738Zm-4.474,8.44a9.2,9.2,0,0,0-.922-4.52,3.329,3.329,0,0,0-3.183-1.567,5.386,5.386,0,0,0-1.845.322,6.529,6.529,0,0,0-1.8.877v11.069a5,5,0,0,0,1.292.369,13.325,13.325,0,0,0,1.476.092,4.373,4.373,0,0,0,3.736-1.66A8.355,8.355,0,0,0,306.893,115.178Zm47.92-10.93a7.7,7.7,0,0,0-2.859.645,13.826,13.826,0,0,0-3.644,2.675V104.34h-6.365v22.046h6.365V111.627a13.717,13.717,0,0,1,2.26-.692,12.4,12.4,0,0,1,2.4-.184c.368,0,.876.046,1.475.092a5.466,5.466,0,0,1,1.292.231h.553v-6.78c-.23,0-.461-.046-.738-.046Zm-37.865,60.28h4.52l31.777-35.652h-8.071Zm55.991-60.234h6.18V123.85a15.293,15.293,0,0,1-.784,5.211,7.653,7.653,0,0,1-2.213,3.321,8.78,8.78,0,0,1-3.46,1.753,17.194,17.194,0,0,1-4.566.553,29.414,29.414,0,0,1-4.058-.277c-1.338-.184-2.491-.415-3.459-.645v-5.535h.784a19.272,19.272,0,0,0,2.859.923,12.617,12.617,0,0,0,3,.414,9.817,9.817,0,0,0,2.86-.368,3.652,3.652,0,0,0,1.66-1.015,3.531,3.531,0,0,0,.784-1.615,11.266,11.266,0,0,0,.231-2.351V123.8a10.03,10.03,0,0,1-2.537,1.661,7.408,7.408,0,0,1-3.09.6,7.827,7.827,0,0,1-6.411-2.767c-1.522-1.845-2.26-4.7-2.26-8.487a14.452,14.452,0,0,1,.692-4.7,10.528,10.528,0,0,1,1.937-3.459,8.86,8.86,0,0,1,2.859-2.168,8.576,8.576,0,0,1,3.46-.784,9.636,9.636,0,0,1,2.905.415,10.488,10.488,0,0,1,2.4,1.153Zm-.138,5.119a5.115,5.115,0,0,0-1.338-.415,8.3,8.3,0,0,0-1.429-.138,4.342,4.342,0,0,0-3.736,1.614,7.161,7.161,0,0,0-1.246,4.474c0,2.122.369,3.6,1.061,4.428a3.909,3.909,0,0,0,3.183,1.245,5.005,5.005,0,0,0,1.844-.323,7.121,7.121,0,0,0,1.661-.877Zm62.126,67.568,1.614,2.906-2.076-.184-1.337-2.814-.231,2.675-1.752-.138.645-6.78,2.03.184a3.523,3.523,0,0,1,2.214.646,2.019,2.019,0,0,1,.6,1.707A1.815,1.815,0,0,1,434.927,176.981Zm-.185-1.706c.092-.738-.231-1.015-1.014-1.061l-.37-.046-.138,1.8.277.046C434.281,176.105,434.7,175.875,434.742,175.275ZM228.487,106.738c1.337,1.983,2.029,4.751,2.029,8.3a13.473,13.473,0,0,1-2.583,8.486,7.931,7.931,0,0,1-6.457,3.275,10.839,10.839,0,0,1-2.906-.369,9.272,9.272,0,0,1-2.352-1.153l-.277,1.107h-6.088V95.853h6.365v10.793a15.548,15.548,0,0,1,3-2.122,7.148,7.148,0,0,1,3.5-.784A6.573,6.573,0,0,1,228.487,106.738Zm-4.521,8.44a9.187,9.187,0,0,0-.922-4.52,3.329,3.329,0,0,0-3.183-1.567,5.377,5.377,0,0,0-1.844.322,6.515,6.515,0,0,0-1.8.877v11.069a4.979,4.979,0,0,0,1.291.369,13.325,13.325,0,0,0,1.476.092,4.373,4.373,0,0,0,3.736-1.66A8.355,8.355,0,0,0,223.966,115.178Zm-26.289,8.856v.038l.046-.038Zm-18.172-11.346a6.866,6.866,0,0,1,1.568,4.75,8.277,8.277,0,0,1-.784,3.782,7.422,7.422,0,0,1-2.121,2.768,9.138,9.138,0,0,1-3.413,1.845,16.867,16.867,0,0,1-4.7.553H158.658V97.145h10.147a36.3,36.3,0,0,1,4.658.231,8.244,8.244,0,0,1,2.906,1.06,5.226,5.226,0,0,1,2.214,2.26,6.8,6.8,0,0,1,.738,3.229,6.671,6.671,0,0,1-1.015,3.736,6.4,6.4,0,0,1-2.86,2.536v.139A6.934,6.934,0,0,1,179.505,112.688Zm-14.159-4.013h1.061c1.06,0,1.983,0,2.721-.046a4.7,4.7,0,0,0,1.8-.415,2.44,2.44,0,0,0,1.2-1.153,4.479,4.479,0,0,0,.276-1.66,3.573,3.573,0,0,0-.322-1.476,2.183,2.183,0,0,0-1.153-1.061,5.3,5.3,0,0,0-1.845-.323c-.738,0-1.753-.046-3.09-.046h-.646Zm8.717,8.625a3.688,3.688,0,0,0-.508-2.168,3.07,3.07,0,0,0-1.66-1.153,6.7,6.7,0,0,0-2.168-.276h-4.381v7.287h4.612a5.255,5.255,0,0,0,2.26-.507,3.176,3.176,0,0,0,1.476-1.292A4.944,4.944,0,0,0,174.063,117.3Zm29.887-5.95v14.99h-6.273v-2.268l.046-.038h-.046v.038c-.32.273-.76.626-1.245,1.022a7.788,7.788,0,0,1-1.43.969,8.124,8.124,0,0,1-1.937.692,11.2,11.2,0,0,1-2.214.231,6.26,6.26,0,0,1-4.7-1.937,6.71,6.71,0,0,1-1.891-4.981,7.44,7.44,0,0,1,.968-3.967,6.41,6.41,0,0,1,2.768-2.4,13.323,13.323,0,0,1,4.381-1.245q2.63-.346,5.4-.554v-.138a2.65,2.65,0,0,0-1.337-2.537,8.864,8.864,0,0,0-3.967-.692,11.54,11.54,0,0,0-3.366.6c-1.2.415-2.03.737-2.537.968h-.6v-5.3c.646-.184,1.753-.415,3.275-.692a25.038,25.038,0,0,1,4.52-.415c3.6,0,6.226.6,7.794,1.845C203.166,106.785,203.95,108.721,203.95,111.35Zm-6.227,4.659c-.876.092-1.8.184-2.767.322a17,17,0,0,0-2.26.462,3.016,3.016,0,0,0-1.43.969,2.633,2.633,0,0,0-.507,1.659,6.65,6.65,0,0,0,.092,1.108,2.026,2.026,0,0,0,.508.83,2.051,2.051,0,0,0,.968.553,5.576,5.576,0,0,0,1.753.184,4.9,4.9,0,0,0,1.937-.414,4.654,4.654,0,0,0,1.706-1.061ZM382.948,80.68l-15.82,20.939h10.331l5.765-6.457h12.822l26.382,87.493,2.951-.323L403.518,81.187C395.631,85.2,388.713,85.292,382.948,80.68ZM214.466,93.824h-6.181v3.967H197.769l13.836-63.74h19.049l12.222,63.74h-16.1l-1.153-8.21h-10.47Zm2.582-17.757H223.6l-1.66-14.8c-.461-3.966-.784-8.025-1.153-11.991h-.138c-.461,3.966-.876,8.025-1.476,11.991Z" fill="#fff"></path></svg>